# xmcd CD database file
# Copyright (C) 1993-2000  Ti Kan
#
# Track frame offsets:
#	150
#	11848
#	25373
#	43496
#	67906
#	91191
#	97870
#	115982
#	133657
#	149456
#	171351
#	189073
#	201029
#	221273
#	241404
#	253579
#	271320
#
# Disc length: 3847 seconds
#
# Revision: 1
# Processed by: cddbd v1.4b42PL1 Copyright (c) Steve Scherf et al.
# Submitted via: xmcd 2.6 PL0
#
DISCID=ef0f0511
DTITLE=Lightnin' Hopkins - The Essential Recordings
DYEAR=1900
DGENRE=
TTITLE0=Sometimes She Will
TTITLE1=Mojo Hand
TTITLE2=Shake That Thing
TTITLE3=Walk A Long Time
TTITLE4=Last Night
TTITLE5=Just Pickin'
TTITLE6=Bring Me My Shotgun
TTITLE7=I'm Leaving You Now
TTITLE8=Coffee For Momma
TTITLE9=Awful Dreams
TTITLE10=Black Mare Trot
TTITLE11=Have You Ever Loved A Woman
TTITLE12=Glory Be
TTITLE13=Shine On Moon
TTITLE14=Lonesome Dog
TTITLE15=Just Sitting Down Thinking
TTITLE16=Santa
EXTD=
EXTT0=
EXTT1=
EXTT2=
EXTT3=
EXTT4=
EXTT5=
EXTT6=
EXTT7=
EXTT8=
EXTT9=
EXTT10=
EXTT11=
EXTT12=
EXTT13=
EXTT14=
EXTT15=
EXTT16=
PLAYORDER=
